<?xml version="1.0" encoding="UTF-8" standalone="no"?>
<svg width="80px" height="80px" viewBox="0 0 80 80" version="1.1" xmlns="http://www.w3.org/2000/svg" xmlns:xlink="http://www.w3.org/1999/xlink">
    <!-- Generator: Sketch 3.6.1 (26313) - http://www.bohemiancoding.com/sketch -->
    <title>ideas</title>
    <desc>Created with Sketch.</desc>
    <defs></defs>
    <g id="Page-1" stroke="none" stroke-width="1" fill="none" fill-rule="evenodd">
        <g id="ideas">
            <g id="lamp-aan" transform="translate(8.000000, 9.000000)">
                <g id="bulb" transform="translate(0.000000, 1.000000)">
                    <path d="M25,46.0296 L25,51.5296 C25,55.3956 21.866,58.5296 18,58.5296 C14.134,58.5296 11,55.3956 11,51.5296 L11,46.0296" id="Fill-3" fill="#A6ACB2"></path>
                    <path d="M25,46.0296 L25,51.5296 C25,55.3956 21.866,58.5296 18,58.5296 C14.134,58.5296 11,55.3956 11,51.5296 L11,46.0296" id="Stroke-5" stroke="#232E38" stroke-width="2"></path>
                    <path d="M22.6667,46.5296 L13.3337,46.5296 C10.9397,46.5296 8.9997,44.5896 8.9997,42.1966 L8.9997,38.5296 L26.9997,38.5296 L26.9997,42.1966 C26.9997,44.5896 25.0597,46.5296 22.6667,46.5296" id="Fill-7" fill="#A6ACB2"></path>
                    <path d="M22.6667,46.5296 L13.3337,46.5296 C10.9397,46.5296 8.9997,44.5896 8.9997,42.1966 L8.9997,38.5296 L26.9997,38.5296 L26.9997,42.1966 C26.9997,44.5896 25.0597,46.5296 22.6667,46.5296 L22.6667,46.5296 L22.6667,46.5296 Z" id="Stroke-9" stroke="#232E38" stroke-width="2"></path>
                    <path d="M36,18.5296 C36,7.9116 26.807,-0.5584 15.947,0.6436 C7.471,1.5816 0.719,8.5876 0.056,17.0896 C-0.417,23.1616 2.132,28.6486 6.352,32.2326 C8.082,33.7026 9,35.9166 9,38.1866 L9,38.5296 L27,38.5296 L27,38.0256 C27,35.8286 27.909,33.6976 29.59,32.2816 C33.507,28.9836 36,24.0516 36,18.5296" id="Fill-11" fill="#FFCC00"></path>
                    <path d="M36,18.5296 C36,7.9116 26.807,-0.5584 15.947,0.6436 C7.471,1.5816 0.719,8.5876 0.056,17.0896 C-0.417,23.1616 2.132,28.6486 6.352,32.2326 C8.082,33.7026 9,35.9166 9,38.1866 L9,38.5296 L27,38.5296 L27,38.0256 C27,35.8286 27.909,33.6976 29.59,32.2816 C33.507,28.9836 36,24.0516 36,18.5296 L36,18.5296 L36,18.5296 Z" id="Stroke-13" stroke="#383128" stroke-width="2"></path>
                    <path d="M11.9,54.5296 L24.2,54.5296" id="Stroke-15" stroke="#232E38" stroke-width="2"></path>
                    <path d="M11.1,50.5296 L25,50.5296" id="Stroke-17" stroke="#232E38" stroke-width="2"></path>
                    <path d="M29.7,24.5296 C28.25,27.5676 26.095,28.6186 24.833,30.5046" id="Stroke-19" stroke="#FFFFFF" stroke-width="2"></path>
                    <path d="M7.3289,10.119 C9.8329,6.87 13.7639,4.777 18.1829,4.777" id="Stroke-21" stroke="#FFFFFF" stroke-width="2"></path>
                    <path d="M4.6076,16.647 C4.7616,15.491 5.0596,14.381 5.4836,13.335" id="Stroke-23" stroke="#FFFFFF" stroke-width="2"></path>
                </g>
                <g id="bulb" transform="translate(27.000000, 0.000000)">
                    <path d="M25,46.0296 L25,51.5296 C25,55.3956 21.866,58.5296 18,58.5296 C14.134,58.5296 11,55.3956 11,51.5296 L11,46.0296" id="Fill-3" fill="#A6ACB2"></path>
                    <path d="M25,46.0296 L25,51.5296 C25,55.3956 21.866,58.5296 18,58.5296 C14.134,58.5296 11,55.3956 11,51.5296 L11,46.0296" id="Stroke-5" stroke="#232E38" stroke-width="2"></path>
                    <path d="M22.6667,46.5296 L13.3337,46.5296 C10.9397,46.5296 8.9997,44.5896 8.9997,42.1966 L8.9997,38.5296 L26.9997,38.5296 L26.9997,42.1966 C26.9997,44.5896 25.0597,46.5296 22.6667,46.5296" id="Fill-7" fill="#A6ACB2"></path>
                    <path d="M22.6667,46.5296 L13.3337,46.5296 C10.9397,46.5296 8.9997,44.5896 8.9997,42.1966 L8.9997,38.5296 L26.9997,38.5296 L26.9997,42.1966 C26.9997,44.5896 25.0597,46.5296 22.6667,46.5296 L22.6667,46.5296 L22.6667,46.5296 Z" id="Stroke-9" stroke="#232E38" stroke-width="2"></path>
                    <path d="M36,18.5296 C36,7.9116 26.807,-0.5584 15.947,0.6436 C7.471,1.5816 0.719,8.5876 0.056,17.0896 C-0.417,23.1616 2.132,28.6486 6.352,32.2326 C8.082,33.7026 9,35.9166 9,38.1866 L9,38.5296 L27,38.5296 L27,38.0256 C27,35.8286 27.909,33.6976 29.59,32.2816 C33.507,28.9836 36,24.0516 36,18.5296" id="Fill-11" fill="#FFCC00"></path>
                    <path d="M36,18.5296 C36,7.9116 26.807,-0.5584 15.947,0.6436 C7.471,1.5816 0.719,8.5876 0.056,17.0896 C-0.417,23.1616 2.132,28.6486 6.352,32.2326 C8.082,33.7026 9,35.9166 9,38.1866 L9,38.5296 L27,38.5296 L27,38.0256 C27,35.8286 27.909,33.6976 29.59,32.2816 C33.507,28.9836 36,24.0516 36,18.5296 L36,18.5296 L36,18.5296 Z" id="Stroke-13" stroke="#383128" stroke-width="2"></path>
                    <path d="M11.9,54.5296 L24.2,54.5296" id="Stroke-15" stroke="#232E38" stroke-width="2"></path>
                    <path d="M11.1,50.5296 L25,50.5296" id="Stroke-17" stroke="#232E38" stroke-width="2"></path>
                    <path d="M29.7,24.5296 C28.25,27.5676 26.095,28.6186 24.833,30.5046" id="Stroke-19" stroke="#FFFFFF" stroke-width="2"></path>
                    <path d="M7.3289,10.119 C9.8329,6.87 13.7639,4.777 18.1829,4.777" id="Stroke-21" stroke="#FFFFFF" stroke-width="2"></path>
                    <path d="M4.6076,16.647 C4.7616,15.491 5.0596,14.381 5.4836,13.335" id="Stroke-23" stroke="#FFFFFF" stroke-width="2"></path>
                </g>
                <g id="bulb" transform="translate(14.000000, 9.000000)">
                    <path d="M25,46.0296 L25,51.5296 C25,55.3956 21.866,58.5296 18,58.5296 C14.134,58.5296 11,55.3956 11,51.5296 L11,46.0296" id="Fill-3" fill="#A6ACB2"></path>
                    <path d="M25,46.0296 L25,51.5296 C25,55.3956 21.866,58.5296 18,58.5296 C14.134,58.5296 11,55.3956 11,51.5296 L11,46.0296" id="Stroke-5" stroke="#232E38" stroke-width="2"></path>
                    <path d="M22.6667,46.5296 L13.3337,46.5296 C10.9397,46.5296 8.9997,44.5896 8.9997,42.1966 L8.9997,38.5296 L26.9997,38.5296 L26.9997,42.1966 C26.9997,44.5896 25.0597,46.5296 22.6667,46.5296" id="Fill-7" fill="#A6ACB2"></path>
                    <path d="M22.6667,46.5296 L13.3337,46.5296 C10.9397,46.5296 8.9997,44.5896 8.9997,42.1966 L8.9997,38.5296 L26.9997,38.5296 L26.9997,42.1966 C26.9997,44.5896 25.0597,46.5296 22.6667,46.5296 L22.6667,46.5296 L22.6667,46.5296 Z" id="Stroke-9" stroke="#232E38" stroke-width="2"></path>
                    <path d="M36,18.5296 C36,7.9116 26.807,-0.5584 15.947,0.6436 C7.471,1.5816 0.719,8.5876 0.056,17.0896 C-0.417,23.1616 2.132,28.6486 6.352,32.2326 C8.082,33.7026 9,35.9166 9,38.1866 L9,38.5296 L27,38.5296 L27,38.0256 C27,35.8286 27.909,33.6976 29.59,32.2816 C33.507,28.9836 36,24.0516 36,18.5296" id="Fill-11" fill="#FFCC00"></path>
                    <path d="M36,18.5296 C36,7.9116 26.807,-0.5584 15.947,0.6436 C7.471,1.5816 0.719,8.5876 0.056,17.0896 C-0.417,23.1616 2.132,28.6486 6.352,32.2326 C8.082,33.7026 9,35.9166 9,38.1866 L9,38.5296 L27,38.5296 L27,38.0256 C27,35.8286 27.909,33.6976 29.59,32.2816 C33.507,28.9836 36,24.0516 36,18.5296 L36,18.5296 L36,18.5296 Z" id="Stroke-13" stroke="#383128" stroke-width="2"></path>
                    <path d="M11.9,54.5296 L24.2,54.5296" id="Stroke-15" stroke="#232E38" stroke-width="2"></path>
                    <path d="M11.1,50.5296 L25,50.5296" id="Stroke-17" stroke="#232E38" stroke-width="2"></path>
                    <path d="M29.7,24.5296 C28.25,27.5676 26.095,28.6186 24.833,30.5046" id="Stroke-19" stroke="#FFFFFF" stroke-width="2"></path>
                    <path d="M7.3289,10.119 C9.8329,6.87 13.7639,4.777 18.1829,4.777" id="Stroke-21" stroke="#FFFFFF" stroke-width="2"></path>
                    <path d="M4.6076,16.647 C4.7616,15.491 5.0596,14.381 5.4836,13.335" id="Stroke-23" stroke="#FFFFFF" stroke-width="2"></path>
                </g>
            </g>
            <path d="M12.238,46 L11,46.685" id="Stroke-25" stroke="#FFFFFF" stroke-width="2"></path>
            <path d="M10.359,42 L7,43.102" id="Stroke-27" stroke="#FFFFFF" stroke-width="2"></path>
            <path d="M6.414,38.039 L5,38" id="Stroke-29" stroke="#FFFFFF" stroke-width="2"></path>
            <path d="M6.534,34.098 L3,34" id="Stroke-31" stroke="#FFFFFF" stroke-width="2"></path>
            <path d="M5.414,30.039 L4,30" id="Stroke-33" stroke="#FFFFFF" stroke-width="2"></path>
            <path d="M5.534,26.098 L2,26" id="Stroke-35" stroke="#FFFFFF" stroke-width="2"></path>
            <path d="M7.04,18.804 L4,17" id="Stroke-37" stroke="#FFFFFF" stroke-width="2"></path>
            <path d="M11.486,12.514 L9,10" id="Stroke-39" stroke="#FFFFFF" stroke-width="2"></path>
            <path d="M18.588,8.159 L17,5" id="Stroke-41" stroke="#FFFFFF" stroke-width="2"></path>
            <path d="M26,6.535 L26.018,3" id="Stroke-43" stroke="#FFFFFF" stroke-width="2"></path>
            <path d="M72,17.804 L75.04,16" id="Stroke-45" stroke="#FFFFFF" stroke-width="2"></path>
            <path d="M66,11.665 L68.323,9" id="Stroke-47" stroke="#FFFFFF" stroke-width="2"></path>
            <path d="M59,7.028 L60.825,4" id="Stroke-49" stroke="#FFFFFF" stroke-width="2"></path>
            <path d="M68.279,46.603 L67,46" id="Stroke-51" stroke="#FFFFFF" stroke-width="2"></path>
            <path d="M73.127,42.65 L70,41" id="Stroke-53" stroke="#FFFFFF" stroke-width="2"></path>
            <path d="M73.414,38.039 L72,38" id="Stroke-55" stroke="#FFFFFF" stroke-width="2"></path>
            <path d="M76.534,34.098 L73,34" id="Stroke-57" stroke="#FFFFFF" stroke-width="2"></path>
            <path d="M75.414,30.039 L74,30" id="Stroke-59" stroke="#FFFFFF" stroke-width="2"></path>
            <path d="M75.344,22 L74,22.44" id="Stroke-61" stroke="#FFFFFF" stroke-width="2"></path>
            <path d="M70.063,13 L69,13.933" id="Stroke-63" stroke="#FFFFFF" stroke-width="2"></path>
            <path d="M63.885,8 L63,9.103" id="Stroke-65" stroke="#FFFFFF" stroke-width="2"></path>
            <path d="M56.092,5 L56,6.411" id="Stroke-67" stroke="#FFFFFF" stroke-width="2"></path>
            <path d="M33,7.028 L34.825,4" id="Stroke-49" stroke="#FFFFFF" stroke-width="2"></path>
            <path d="M37.885,8 L37,9.103" id="Stroke-65" stroke="#FFFFFF" stroke-width="2"></path>
            <path d="M30.092,5 L30,6.411" id="Stroke-67" stroke="#FFFFFF" stroke-width="2"></path>
            <path d="M4,22 L5.344,22.44" id="Stroke-69" stroke="#FFFFFF" stroke-width="2"></path>
            <path d="M8,14 L9.085,14.907" id="Stroke-71" stroke="#FFFFFF" stroke-width="2"></path>
            <path d="M14,9 L14.814,10.157" id="Stroke-73" stroke="#FFFFFF" stroke-width="2"></path>
            <path d="M22,5 L22.143,6.407" id="Stroke-75" stroke="#FFFFFF" stroke-width="2"></path>
            <path d="M44.588,8.159 L43,5" id="Stroke-41" stroke="#FFFFFF" stroke-width="2"></path>
            <path d="M52,6.535 L52.018,3" id="Stroke-43" stroke="#FFFFFF" stroke-width="2"></path>
            <path d="M40,9 L40.814,10.157" id="Stroke-73" stroke="#FFFFFF" stroke-width="2"></path>
            <path d="M48,5 L48.143,6.407" id="Stroke-75" stroke="#FFFFFF" stroke-width="2"></path>
            <path d="M78.534,26.098 L75,26" id="Stroke-77" stroke="#FFFFFF" stroke-width="2"></path>
        </g>
    </g>
</svg>