<?xml version="1.0" encoding="UTF-8" standalone="no"?>
<svg width="80px" height="80px" viewBox="0 0 80 80" version="1.1" xmlns="http://www.w3.org/2000/svg" xmlns:xlink="http://www.w3.org/1999/xlink">
    <!-- Generator: Sketch 3.6.1 (26313) - http://www.bohemiancoding.com/sketch -->
    <title>send-idea</title>
    <desc>Created with Sketch.</desc>
    <defs></defs>
    <g id="Page-1" stroke="none" stroke-width="1" fill="none" fill-rule="evenodd">
        <g id="send-idea">
            <g id="wing" transform="translate(63.196399, 58.877240) rotate(80.000000) translate(-63.196399, -58.877240) translate(43.196399, 38.377240)">
                <path d="M7.67592613,6.06128791 L17.1779659,6.06128793 C17.1779659,6.06128793 21.9108436,10.5668242 23.9579819,13.6778033 C27.9791655,19.7886841 35.2571207,32.7844519 35.2571207,32.7844519 L34.7971065,35.2716189 C34.7971065,35.2716189 35.2410044,35.7566094 29.2144249,31.2426482 C25.0265987,28.1059294 16.9680055,23.8429079 14.1271847,23.0177126 C11.2863639,22.1925173 9.26227598,18.9835329 7.05817465,16.9809294 C4.85407333,14.9783259 4.29781036,8.18442421 4.29781036,8.18442421 L7.67592613,6.06128791 Z" id="Path-18" fill="#FFFFFF" transform="translate(19.777466, 20.674040) rotate(-66.000000) translate(-19.777466, -20.674040) "></path>
                <path d="M0.383822512,29.3716058 C1.36919106,28.9842509 1.96748611,27.5215647 2.39026136,26.4691862 C2.92894278,25.1283735 3.29625576,23.7528269 3.65277518,22.3293433 C4.25107024,19.9377772 4.99798424,17.726787 6.9607507,16.6295185 C8.29533226,15.8838552 9.89111785,15.7065291 11.3213469,15.4067201 C13.0973018,15.0341931 14.8822237,14.7297122 16.6699685,14.4628091 C20.2208821,13.9336746 23.7837516,13.5221481 27.3482816,13.1583554 C29.6034704,12.9284205 31.8408913,12.6412051 34.0881094,12.3261619 C35.0764669,12.1880384 36.0744556,12.0992738 37.0686251,12.1780854 C37.8339712,12.2390222 38.750261,12.4181764 39.2823002,13.1530742 C39.3083708,12.8979521 39.3344414,12.6422207 39.360678,12.3868955 C38.4311038,13.2341201 37.2159156,13.6208657 36.1126482,13.9854708 C34.7940079,14.4209658 33.4443154,14.719353 32.1022614,15.0242401 C28.8587151,15.7601535 25.5904266,16.5212541 22.2796282,16.5336446 C21.6245424,16.5364883 21.6187305,17.7795989 22.2723217,17.7751302 C25.670631,17.7519743 29.0302496,16.9571553 32.3588159,16.1944297 C34.8630867,15.6199989 37.6426762,15.0742083 39.7636927,13.2268077 C39.9847115,13.0342474 40.0179225,12.7147355 39.8419045,12.4608322 C38.4661414,10.4744957 35.6604813,11.0020053 33.8122926,11.2676897 C30.9528308,11.6786068 28.0925387,11.9755721 25.2229476,12.2713187 C21.6859826,12.6363301 18.1554938,12.9928104 14.6359646,13.5662257 C12.8840876,13.851613 11.1378565,14.1892029 9.40075835,14.5867139 C8.14306011,14.8745387 6.89748386,15.1824726 5.78325688,15.9896821 C4.15940805,17.1657623 3.40369314,19.261785 2.86517778,21.3740575 C2.54070691,22.6474334 2.28531479,23.9338092 1.88977251,25.1787479 C1.65845833,25.9071458 1.39808457,26.6276218 1.09885402,27.3180358 C0.877337057,27.8280767 0.594379862,28.4341948 0.15051567,28.6899262 C-0.161833206,28.870096 0.0591855892,29.4989637 0.383822512,29.3716058" id="Fill-29" fill="#231F1F"></path>
                <path d="M18.002568,20.8290473 C18.5535375,20.8822654 19.0633254,20.9907329 19.6274132,20.9736706 C20.379973,20.951124 21.1320347,20.9052183 21.8834322,20.8471252 C23.6404569,20.7112362 25.395655,20.4754108 27.1297641,20.1008526 C28.7134277,19.7583878 30.2997482,19.2450968 31.7598671,18.4084346 C32.8375621,17.7905355 33.9763652,16.8092499 34.3446745,15.3540792 C34.4046202,15.1186601 34.3388625,14.8355071 34.194561,14.6673215 C34.1669959,14.6348219 34.1394309,14.6025254 34.1115337,14.5706351 C34.0165504,14.4593239 33.8642782,14.3931059 33.7342574,14.4481522 C33.1811292,14.6803214 33.1392834,15.5161711 32.7606788,16.0201184 C32.3611512,16.5516904 31.8455513,16.9299048 31.3269625,17.2611978 C29.9492068,18.1423439 28.398588,18.5975418 26.8906454,19.0098808 C25.2428847,19.4608131 23.5668947,19.760419 21.8884138,19.9801977 C21.1698952,20.0746498 20.449716,20.1477739 19.7287065,20.2052576 C19.4268191,20.2296323 19.1249317,20.2434447 18.8242066,20.2800068 C18.5472274,20.3133189 18.2777206,20.4278801 18.0047267,20.4555047 C17.8089482,20.4748014 17.8054611,20.8101569 18.002568,20.8290473" id="Fill-30" fill="#231F1F"></path>
                <path d="M15.3441425,25.6551572 C17.5639616,25.787187 19.7866037,25.3612388 21.9107753,24.5782009 C22.9990977,24.1770337 24.0621799,23.646071 25.0581759,22.97536 C25.9188374,22.3952417 26.8864381,21.6075321 27.5031652,20.6581368 C27.9035231,20.0416595 27.2298392,19.1684352 26.7750154,19.7773969 C26.1111287,20.6672773 25.4558769,21.3946595 24.6008613,22.0221054 C23.6428918,22.7240973 22.6023931,23.2404351 21.5436283,23.6651646 C19.5564518,24.4636397 17.434771,24.9115252 15.3476296,25.0565548 C15.033122,25.0782889 15.0274762,25.6368762 15.3441425,25.6551572" id="Fill-31" fill="#231F1F"></path>
                <path d="M11.8743605,29.170982 C12.7101137,29.4246822 13.6538026,29.3288083 14.5068255,29.2906212 C15.4818987,29.2469498 16.457636,29.1149201 17.4066386,28.8352202 C19.1920586,28.3085232 21.0777757,26.9252579 21.667602,24.6681589 C21.8522548,23.9623077 20.9821282,23.5262033 20.6968463,24.1719303 C20.2910086,25.0898416 19.9183819,25.9013166 19.2199558,26.5417623 C18.5318252,27.1728644 17.7209801,27.5474226 16.8960204,27.8110758 C16.0717249,28.0753384 15.2206946,28.2000557 14.3728194,28.280086 C13.5541697,28.3574757 12.6759065,28.2737892 11.875855,28.516927 C11.6101675,28.5975667 11.6071785,29.0897329 11.8743605,29.170982" id="Fill-32" fill="#231F1F"></path>
                <path d="M0.189488208,30.2411107 C2.97754649,30.4716549 5.72326082,31.1643031 8.50783195,31.4285657 C9.88957305,31.559783 11.3061856,31.5477987 12.6573727,31.1305848 C13.2317558,30.9532587 13.7950133,30.6646214 14.2900224,30.2658916 C14.5314659,30.0719095 14.7548095,29.8423809 14.9484292,29.5807589 C15.047896,29.4452761 15.1365692,29.2974028 15.2200947,29.147092 C15.2732322,29.0516244 15.2941551,28.5543801 15.2705753,28.7469404 C15.321056,28.3368358 15.020663,27.9947772 14.6935353,28.2068373 C14.9110669,28.0652608 14.5143623,28.2702115 14.5042329,28.2773208 C14.3783635,28.3675073 14.2833802,28.5281773 14.1817547,28.6533009 C13.9941129,28.8832357 13.7855482,29.0812803 13.5622047,29.2555595 C13.0977497,29.6177272 12.5711903,29.8198343 12.0388189,29.9705513 C10.7142006,30.3455157 9.29576147,30.2799071 7.94822764,30.1929706 C6.53460405,30.1021748 5.12745659,29.8982396 3.71864858,29.7353353 C2.53882999,29.5984306 1.30687023,29.4558385 0.141000238,29.7743348 C-0.0825093779,29.8350685 -0.0207370325,30.2236421 0.189488208,30.2411107" id="Fill-33" fill="#231F1F"></path>
                <path d="M3.89921643,27.036755 C4.64945153,26.1980616 5.01709662,25.0260439 5.39055362,23.8962757 C5.83026644,22.5648066 6.24722977,21.2950869 7.05990144,20.2333648 C7.7131606,19.3804528 8.55538999,18.8074437 9.40426158,18.297809 C10.2722295,17.7767994 11.2325237,17.3589761 11.898237,16.467877 C12.0068368,16.3224412 11.8990673,16.1095686 11.7454667,16.1469432 C10.7914825,16.3787061 9.88781284,16.9742618 9.01502938,17.4869434 C8.14357436,17.9988124 7.32492473,18.6057429 6.62367576,19.4259522 C5.81847656,20.3666133 5.39487104,21.5894116 4.98255724,22.8272411 C4.54118387,24.1505852 4.1071169,25.4333048 3.47677329,26.6426971 C3.30689934,26.968709 3.68218295,27.2796897 3.89921643,27.036755" id="Fill-34" fill="#231F1F"></path>
            </g>
            <g id="wing" transform="translate(21.324003, 24.496380) scale(-1, 1) rotate(3.000000) translate(-21.324003, -24.496380) translate(1.324003, 3.996380)">
                <path d="M7.67592613,6.06128791 L17.1779659,6.06128793 C17.1779659,6.06128793 21.9108436,10.5668242 23.9579819,13.6778033 C27.9791655,19.7886841 35.2571207,32.7844519 35.2571207,32.7844519 L34.7971065,35.2716189 C34.7971065,35.2716189 35.2410044,35.7566094 29.2144249,31.2426482 C25.0265987,28.1059294 16.9680055,23.8429079 14.1271847,23.0177126 C11.2863639,22.1925173 9.26227598,18.9835329 7.05817465,16.9809294 C4.85407333,14.9783259 4.29781036,8.18442421 4.29781036,8.18442421 L7.67592613,6.06128791 Z" id="Path-18" fill="#FFFFFF" transform="translate(19.777466, 20.674040) rotate(-66.000000) translate(-19.777466, -20.674040) "></path>
                <path d="M0.383822512,29.3716058 C1.36919106,28.9842509 1.96748611,27.5215647 2.39026136,26.4691862 C2.92894278,25.1283735 3.29625576,23.7528269 3.65277518,22.3293433 C4.25107024,19.9377772 4.99798424,17.726787 6.9607507,16.6295185 C8.29533226,15.8838552 9.89111785,15.7065291 11.3213469,15.4067201 C13.0973018,15.0341931 14.8822237,14.7297122 16.6699685,14.4628091 C20.2208821,13.9336746 23.7837516,13.5221481 27.3482816,13.1583554 C29.6034704,12.9284205 31.8408913,12.6412051 34.0881094,12.3261619 C35.0764669,12.1880384 36.0744556,12.0992738 37.0686251,12.1780854 C37.8339712,12.2390222 38.750261,12.4181764 39.2823002,13.1530742 C39.3083708,12.8979521 39.3344414,12.6422207 39.360678,12.3868955 C38.4311038,13.2341201 37.2159156,13.6208657 36.1126482,13.9854708 C34.7940079,14.4209658 33.4443154,14.719353 32.1022614,15.0242401 C28.8587151,15.7601535 25.5904266,16.5212541 22.2796282,16.5336446 C21.6245424,16.5364883 21.6187305,17.7795989 22.2723217,17.7751302 C25.670631,17.7519743 29.0302496,16.9571553 32.3588159,16.1944297 C34.8630867,15.6199989 37.6426762,15.0742083 39.7636927,13.2268077 C39.9847115,13.0342474 40.0179225,12.7147355 39.8419045,12.4608322 C38.4661414,10.4744957 35.6604813,11.0020053 33.8122926,11.2676897 C30.9528308,11.6786068 28.0925387,11.9755721 25.2229476,12.2713187 C21.6859826,12.6363301 18.1554938,12.9928104 14.6359646,13.5662257 C12.8840876,13.851613 11.1378565,14.1892029 9.40075835,14.5867139 C8.14306011,14.8745387 6.89748386,15.1824726 5.78325688,15.9896821 C4.15940805,17.1657623 3.40369314,19.261785 2.86517778,21.3740575 C2.54070691,22.6474334 2.28531479,23.9338092 1.88977251,25.1787479 C1.65845833,25.9071458 1.39808457,26.6276218 1.09885402,27.3180358 C0.877337057,27.8280767 0.594379862,28.4341948 0.15051567,28.6899262 C-0.161833206,28.870096 0.0591855892,29.4989637 0.383822512,29.3716058" id="Fill-29" fill="#231F1F"></path>
                <path d="M18.002568,20.8290473 C18.5535375,20.8822654 19.0633254,20.9907329 19.6274132,20.9736706 C20.379973,20.951124 21.1320347,20.9052183 21.8834322,20.8471252 C23.6404569,20.7112362 25.395655,20.4754108 27.1297641,20.1008526 C28.7134277,19.7583878 30.2997482,19.2450968 31.7598671,18.4084346 C32.8375621,17.7905355 33.9763652,16.8092499 34.3446745,15.3540792 C34.4046202,15.1186601 34.3388625,14.8355071 34.194561,14.6673215 C34.1669959,14.6348219 34.1394309,14.6025254 34.1115337,14.5706351 C34.0165504,14.4593239 33.8642782,14.3931059 33.7342574,14.4481522 C33.1811292,14.6803214 33.1392834,15.5161711 32.7606788,16.0201184 C32.3611512,16.5516904 31.8455513,16.9299048 31.3269625,17.2611978 C29.9492068,18.1423439 28.398588,18.5975418 26.8906454,19.0098808 C25.2428847,19.4608131 23.5668947,19.760419 21.8884138,19.9801977 C21.1698952,20.0746498 20.449716,20.1477739 19.7287065,20.2052576 C19.4268191,20.2296323 19.1249317,20.2434447 18.8242066,20.2800068 C18.5472274,20.3133189 18.2777206,20.4278801 18.0047267,20.4555047 C17.8089482,20.4748014 17.8054611,20.8101569 18.002568,20.8290473" id="Fill-30" fill="#231F1F"></path>
                <path d="M15.3441425,25.6551572 C17.5639616,25.787187 19.7866037,25.3612388 21.9107753,24.5782009 C22.9990977,24.1770337 24.0621799,23.646071 25.0581759,22.97536 C25.9188374,22.3952417 26.8864381,21.6075321 27.5031652,20.6581368 C27.9035231,20.0416595 27.2298392,19.1684352 26.7750154,19.7773969 C26.1111287,20.6672773 25.4558769,21.3946595 24.6008613,22.0221054 C23.6428918,22.7240973 22.6023931,23.2404351 21.5436283,23.6651646 C19.5564518,24.4636397 17.434771,24.9115252 15.3476296,25.0565548 C15.033122,25.0782889 15.0274762,25.6368762 15.3441425,25.6551572" id="Fill-31" fill="#231F1F"></path>
                <path d="M11.8743605,29.170982 C12.7101137,29.4246822 13.6538026,29.3288083 14.5068255,29.2906212 C15.4818987,29.2469498 16.457636,29.1149201 17.4066386,28.8352202 C19.1920586,28.3085232 21.0777757,26.9252579 21.667602,24.6681589 C21.8522548,23.9623077 20.9821282,23.5262033 20.6968463,24.1719303 C20.2910086,25.0898416 19.9183819,25.9013166 19.2199558,26.5417623 C18.5318252,27.1728644 17.7209801,27.5474226 16.8960204,27.8110758 C16.0717249,28.0753384 15.2206946,28.2000557 14.3728194,28.280086 C13.5541697,28.3574757 12.6759065,28.2737892 11.875855,28.516927 C11.6101675,28.5975667 11.6071785,29.0897329 11.8743605,29.170982" id="Fill-32" fill="#231F1F"></path>
                <path d="M0.189488208,30.2411107 C2.97754649,30.4716549 5.72326082,31.1643031 8.50783195,31.4285657 C9.88957305,31.559783 11.3061856,31.5477987 12.6573727,31.1305848 C13.2317558,30.9532587 13.7950133,30.6646214 14.2900224,30.2658916 C14.5314659,30.0719095 14.7548095,29.8423809 14.9484292,29.5807589 C15.047896,29.4452761 15.1365692,29.2974028 15.2200947,29.147092 C15.2732322,29.0516244 15.2941551,28.5543801 15.2705753,28.7469404 C15.321056,28.3368358 15.020663,27.9947772 14.6935353,28.2068373 C14.9110669,28.0652608 14.5143623,28.2702115 14.5042329,28.2773208 C14.3783635,28.3675073 14.2833802,28.5281773 14.1817547,28.6533009 C13.9941129,28.8832357 13.7855482,29.0812803 13.5622047,29.2555595 C13.0977497,29.6177272 12.5711903,29.8198343 12.0388189,29.9705513 C10.7142006,30.3455157 9.29576147,30.2799071 7.94822764,30.1929706 C6.53460405,30.1021748 5.12745659,29.8982396 3.71864858,29.7353353 C2.53882999,29.5984306 1.30687023,29.4558385 0.141000238,29.7743348 C-0.0825093779,29.8350685 -0.0207370325,30.2236421 0.189488208,30.2411107" id="Fill-33" fill="#231F1F"></path>
                <path d="M3.89921643,27.036755 C4.64945153,26.1980616 5.01709662,25.0260439 5.39055362,23.8962757 C5.83026644,22.5648066 6.24722977,21.2950869 7.05990144,20.2333648 C7.7131606,19.3804528 8.55538999,18.8074437 9.40426158,18.297809 C10.2722295,17.7767994 11.2325237,17.3589761 11.898237,16.467877 C12.0068368,16.3224412 11.8990673,16.1095686 11.7454667,16.1469432 C10.7914825,16.3787061 9.88781284,16.9742618 9.01502938,17.4869434 C8.14357436,17.9988124 7.32492473,18.6057429 6.62367576,19.4259522 C5.81847656,20.3666133 5.39487104,21.5894116 4.98255724,22.8272411 C4.54118387,24.1505852 4.1071169,25.4333048 3.47677329,26.6426971 C3.30689934,26.968709 3.68218295,27.2796897 3.89921643,27.036755" id="Fill-34" fill="#231F1F"></path>
            </g>
            <g id="lamp" transform="translate(52.679203, 29.693472) rotate(42.000000) translate(-52.679203, -29.693472) translate(34.679203, 0.193472)">
                <g id="Page-1" transform="translate(-0.000000, 0.000000)">
                    <g id="lamp-aan">
                        <g id="Group-6" transform="translate(11.000000, 46.000000)">
                            <path d="M14,0.0296 L14,5.5296 C14,9.3956 10.866,12.5296 7,12.5296 C3.134,12.5296 -2.13162821e-14,9.3956 -2.13162821e-14,5.5296 L-2.13162821e-14,0.0296" id="Fill-3" fill="#A6ACB2"></path>
                            <path d="M14,0.0296 L14,5.5296 C14,9.3956 10.866,12.5296 7,12.5296 C3.134,12.5296 -6.39488462e-14,9.3956 -6.39488462e-14,5.5296 L-6.39488462e-14,0.0296" id="Stroke-5" stroke="#232E38" stroke-width="2"></path>
                        </g>
                        <path d="M22.6667,46.5296 L13.3337,46.5296 C10.9397,46.5296 8.9997,44.5896 8.9997,42.1966 L8.9997,38.5296 L26.9997,38.5296 L26.9997,42.1966 C26.9997,44.5896 25.0597,46.5296 22.6667,46.5296" id="Fill-7" fill="#A6ACB2"></path>
                        <path d="M22.6667,46.5296 L13.3337,46.5296 C10.9397,46.5296 8.9997,44.5896 8.9997,42.1966 L8.9997,38.5296 L26.9997,38.5296 L26.9997,42.1966 C26.9997,44.5896 25.0597,46.5296 22.6667,46.5296 L22.6667,46.5296 L22.6667,46.5296 Z" id="Stroke-9" stroke="#232E38" stroke-width="2"></path>
                        <path d="M36,18.5296 C36,7.9116 26.807,-0.5584 15.947,0.6436 C7.471,1.5816 0.719,8.5876 0.056,17.0896 C-0.417,23.1616 2.132,28.6486 6.352,32.2326 C8.082,33.7026 9,35.9166 9,38.1866 L9,38.5296 L27,38.5296 L27,38.0256 C27,35.8286 27.909,33.6976 29.59,32.2816 C33.507,28.9836 36,24.0516 36,18.5296" id="Fill-11" fill="#FFCC00"></path>
                        <path d="M36,18.5296 C36,7.9116 26.807,-0.5584 15.947,0.6436 C7.471,1.5816 0.719,8.5876 0.056,17.0896 C-0.417,23.1616 2.132,28.6486 6.352,32.2326 C8.082,33.7026 9,35.9166 9,38.1866 L9,38.5296 L27,38.5296 L27,38.0256 C27,35.8286 27.909,33.6976 29.59,32.2816 C33.507,28.9836 36,24.0516 36,18.5296 L36,18.5296 L36,18.5296 Z" id="Stroke-13" stroke="#383128" stroke-width="2"></path>
                        <path d="M11.9,54.5296 L24.2,54.5296" id="Stroke-15" stroke="#232E38" stroke-width="2"></path>
                        <path d="M11.1,50.5296 L25,50.5296" id="Stroke-17" stroke="#232E38" stroke-width="2"></path>
                        <path d="M29.7,24.5296 C28.25,27.5676 26.095,28.6186 24.833,30.5046" id="Stroke-19" stroke="#FFFFFF" stroke-width="2"></path>
                        <path d="M7.3289,10.119 C9.8329,6.87 13.7639,4.777 18.1829,4.777" id="Stroke-21" stroke="#FFFFFF" stroke-width="2"></path>
                        <path d="M4.6076,16.647 C4.7616,15.491 5.0596,14.381 5.4836,13.335" id="Stroke-23" stroke="#FFFFFF" stroke-width="2"></path>
                    </g>
                </g>
            </g>
        </g>
    </g>
</svg>